<svg width="50" height="50" viewBox="0 0 50 50" fill="none" xmlns="http://www.w3.org/2000/svg">
<path d="M31.4092 25.5765C30.7211 26.2632 29.8446 26.7307 28.8905 26.92C27.9364 27.1093 26.9476 27.0118 26.0489 26.6398C25.1503 26.2679 24.3823 25.6382 23.8419 24.8304C23.3016 24.0225 23.0132 23.0729 23.0132 22.1014C23.0132 21.1299 23.3016 20.1802 23.8419 19.3723C24.3823 18.5645 25.1503 17.9348 26.0489 17.5629C26.9476 17.1909 27.9364 17.0934 28.8905 17.2827C29.8446 17.472 30.7211 17.9395 31.4092 18.6262C31.8664 19.0824 32.2291 19.6242 32.4765 20.2205C32.7239 20.8168 32.8513 21.4559 32.8513 22.1014C32.8513 22.7468 32.7239 23.386 32.4765 23.9822C32.2291 24.5785 31.8664 25.1203 31.4092 25.5765ZM43.0359 0.512467C42.7905 0.267653 42.478 0.100986 42.1378 0.0335343C41.7976 -0.0339177 41.445 0.000873084 41.1246 0.133509C40.8042 0.266146 40.5304 0.490673 40.3377 0.778709C40.1451 1.06675 40.0422 1.40536 40.0422 1.75175C40.0422 2.09814 40.1451 2.43675 40.3377 2.72479C40.5304 3.01283 40.8042 3.23735 41.1246 3.36999C41.445 3.50263 41.7976 3.53742 42.1378 3.46997C42.478 3.40251 42.7905 3.23585 43.0359 2.99103C43.364 2.66183 43.5482 2.21624 43.5482 1.75175C43.5482 1.28726 43.364 0.841671 43.0359 0.512467ZM49.4869 6.95772C49.2417 6.71256 48.9291 6.54555 48.5888 6.47781C48.2486 6.41008 47.8958 6.44466 47.5752 6.5772C47.2546 6.70973 46.9806 6.93426 46.7877 7.22237C46.5949 7.51048 46.492 7.84923 46.492 8.19577C46.492 8.54231 46.5949 8.88106 46.7877 9.16918C46.9806 9.45729 47.2546 9.68181 47.5752 9.81434C47.8958 9.94688 48.2486 9.98147 48.5888 9.91373C48.9291 9.846 49.2417 9.67899 49.4869 9.43382C49.8154 9.10536 50 8.66006 50 8.19577C50 7.73148 49.8154 7.28619 49.4869 6.95772ZM43.813 6.24322C42.6368 5.06858 41.1384 4.26863 39.507 3.94454C37.8757 3.62044 36.1847 3.78676 34.6481 4.42246C33.1114 5.05816 31.7979 6.13468 30.8738 7.5159C29.9498 8.89712 29.4565 10.521 29.4565 12.1822C29.4565 13.8434 29.9498 15.4672 30.8738 16.8484C31.7979 18.2297 33.1114 19.3062 34.6481 19.9419C36.1847 20.5776 37.8757 20.7439 39.507 20.4198C41.1384 20.0957 42.6368 19.2958 43.813 18.1211C45.3882 16.5459 46.2728 14.4104 46.2724 12.1841C46.2719 9.9578 45.3864 7.82274 43.8105 6.24815L43.813 6.24322ZM23.9739 26.0545C22.0097 24.0932 19.5072 22.7576 16.783 22.2167C14.0588 21.6757 11.2351 21.9536 8.66902 23.0154C6.10296 24.0771 3.90973 25.8749 2.36667 28.1814C0.823601 30.4879 0 33.1997 0 35.9737C0 38.7477 0.823601 41.4594 2.36667 43.766C3.90973 46.0725 6.10296 47.8703 8.66902 48.932C11.2351 49.9937 14.0588 50.2717 16.783 49.7307C19.5072 49.1897 22.0097 47.8542 23.9739 45.8929C25.2782 44.5902 26.3128 43.0437 27.0185 41.3416C27.7243 39.6396 28.0875 37.8154 28.0872 35.9732C28.087 34.131 27.7234 32.3068 27.0172 30.605C26.311 28.9031 25.2761 27.3568 23.9714 26.0545H23.9739Z" fill="white"/>
</svg>
